<?xml version="1.0" encoding="utf-8"?>
<!-- Generator: Adobe Illustrator 18.1.1, SVG Export Plug-In . SVG Version: 6.00 Build 0)  -->
<svg version="1.1" id="Calque_2" xmlns="http://www.w3.org/2000/svg" xmlns:xlink="http://www.w3.org/1999/xlink" x="0px" y="0px"
	 viewBox="0 0 148.7 94" enable-background="new 0 0 148.7 94" xml:space="preserve">
<polygon fill="#91D2E6" points="28.2,78.7 9.5,7.7 135,44 114.3,78.7 "/>
<path fill="#528AA0" d="M38.2,82.7h21.7C59.8,82.7,49.2,71.8,38.2,82.7z"/>
<polygon fill="#81B1B7" points="48,77.9 45.2,43.2 46.5,43.2 49.7,77.9 "/>
<path fill="#3F8EAB" d="M35.7,48.6c-6.2-5.5-11.8-2.2-11.8-2.2c-1.2-2,2.2-17.5,19.7-19.8C43.5,26.5,34.2,30.4,35.7,48.6z"/>
<path fill="#DDF1F5" d="M56.8,47c-11-4-21.2,1.6-21.2,1.6c-1.5-18.1,7.8-22.1,7.8-22.1S54,26.9,56.8,47z"/>
<path fill="#4189AA" d="M67,43.2c-4.7-2-10.2,3.8-10.2,3.8c-2.8-20-13.3-20.5-13.3-20.5C60.7,24.2,66.8,42.6,67,43.2z"/>
<path fill="#3D8DB3" d="M142.2,70.7c0,2.7-1.6,5.3-4.5,7.5c0.4-0.6,0.7-1.2,0.7-1.9c0-5.7-17.4-11.2-38.8-11.2
	c-21.5,0-38.8,5.5-38.8,11.2c0,0.3,0.1,0.7,0.2,1c-2.6-2-4-4.3-4-6.7c0-8.8,19.8-16,44.3-16C125.7,54.7,142.2,61.8,142.2,70.7z"/>
<path fill="#5FBEDF" d="M138.3,76.3c0,0.6-0.2,1.3-0.7,1.9c-4.4,3.4-11.8,6.1-21.3,7.4c0,0,0,0,0,0c-4.8,0.6-10.1,1-15.8,1
	c-17.6-0.1-32.8-3.9-39.7-9.3c-0.1-0.3-0.2-0.7-0.2-1c0-5.7,17.4-11.2,38.8-11.2C120.9,65.2,138.3,70.6,138.3,76.3z"/>
<path fill="#79C5DB" d="M65.7,62.8V52.7c0,0,0.3-4.8,5-4.8c4.7,0,5.7,3.7,5.7,4.7s0,25.4,0,25.4h-4.1V54c0,0-1.4-3-3.4-0.2l-0.3,8
	L65.7,62.8z"/>
<path fill="#79C5DB" d="M78.7,62V51.8c0,0,0.3-4.8,5-4.8c4.7,0,5.7,3.7,5.7,4.7s0,25.4,0,25.4h-4.1V53.2c0,0-1.4-3-3.4-0.2l-0.3,8
	L78.7,62z"/>
<path fill="#79C5DB" d="M76.3,62.8h8.9c0,0,3.3,1,0,2.3h-8.9"/>
<path fill="#79C5DB" d="M76.3,69.3h8.9c0,0,3.1,1.8,0,3.2h-8.9"/>
</svg>
