<?xml version="1.0" encoding="utf-8"?>
<!-- Generator: Adobe Illustrator 18.1.1, SVG Export Plug-In . SVG Version: 6.00 Build 0)  -->
<svg version="1.1" id="Calque_2" xmlns="http://www.w3.org/2000/svg" xmlns:xlink="http://www.w3.org/1999/xlink" x="0px" y="0px"
	 viewBox="0 0 268 210" enable-background="new 0 0 268 210" xml:space="preserve">
<polygon fill="#BEB2A3" points="38,178.7 38,99.3 14.7,99.3 89.3,10.3 109.3,36.7 171,37.3 171,22 193.3,22 193.3,38.3 207,38.3 
	235.3,100 235.3,178.7 "/>
<polygon fill="#FFFFFE" stroke="#000000" stroke-miterlimit="10" points="110.7,200 110.7,83.7 106.7,83.7 106.7,72 120.7,54.3 
	134.7,71.7 134.7,82.7 126.7,82.7 127,200 "/>
<polygon fill="#FFFFFE" stroke="#000000" stroke-miterlimit="10" points="225.3,200 225.3,83.7 221.3,83.7 221.3,72 235.3,54.3 
	249.3,71.7 249.3,82.7 241.3,82.7 241.7,200 "/>
<polygon fill="#FFFFFE" stroke="#000000" stroke-miterlimit="10" points="139.3,200 139.3,89 145.3,78.3 151.7,88.7 151.7,200 "/>
<polygon fill="#FFFFFE" stroke="#000000" stroke-miterlimit="10" points="161,200 161,89 167,78.3 173.3,88.7 173.3,200 "/>
<polygon fill="#FFFFFE" stroke="#000000" stroke-miterlimit="10" points="181,200 181,89 187,78.3 193.3,88.7 193.3,200 "/>
<polygon fill="#FFFFFE" stroke="#000000" stroke-miterlimit="10" points="204.3,200 204.3,89 210.3,78.3 216.7,88.7 216.7,200 "/>
<rect x="106.7" y="96.7" fill="#FFFFFE" stroke="#000000" stroke-miterlimit="10" width="142.7" height="16"/>
<rect x="106.7" y="176.3" fill="#FFFFFE" stroke="#000000" stroke-miterlimit="10" width="142.7" height="17.7"/>
</svg>
