<?xml version="1.0" encoding="utf-8"?>
<!-- Generator: Adobe Illustrator 18.1.1, SVG Export Plug-In . SVG Version: 6.00 Build 0)  -->
<svg version="1.1" id="Calque_2" xmlns="http://www.w3.org/2000/svg" xmlns:xlink="http://www.w3.org/1999/xlink" x="0px" y="0px"
	 viewBox="0 0 339.3 260" enable-background="new 0 0 339.3 260" xml:space="preserve">
<path fill="#D64F6B" d="M283.8,115v87l-182,46.5c0,0-46.5,8-69.5-3c0,0-12.5-10,0-21.5l63-18.5l69.5,19.5v-88.3c0,0-0.2-0.3-0.5-0.9
	c-3.4-5.9-24.3-39.2-57.8-25.4c3.5-2.7,8.2-4.8,14.3-5.9c23-4,105.5-20.5,105.5-20.5S263.8,75,283.8,115z"/>
<path fill="#E990AB" d="M327.3,52.5l-141-32L42.8,56v115l52.5,16.2v-58.7c0,0,2.5-20,25.5-24S226.3,84,226.3,84s37.5-9,57.5,31v69.8
	l43.5-9.3V52.5z"/>
<path fill="#B43750" d="M164.8,205.5V225l-69.5-19.5v-77c0,0,1.3-10.8,11.2-18.1C140,96.6,161,130,164.4,135.8l-60.5,10.7l26.2,66
	L164.8,205.5z"/>
<path fill="#E990AB" d="M164.8,136.7v68.8l-34.8,7l-26.2-66l60.5-10.7C164.7,136.4,164.8,136.7,164.8,136.7z"/>
<polyline fill="#B4374F" points="144.5,100.1 144.5,47.5 187.8,38.5 187.8,65.5 150.3,72 150.9,98.9 "/>
<polygon fill="#B33750" points="118.3,153.5 123.8,166 134.3,163 128.8,150.5 "/>
<g>
	<g>
		<path fill="#EA91AB" d="M217.6,171.2c1,5.4-0.2,10-3.8,14.2c-3.5,4-8.8,7.2-15.9,9.3c-2,0.6-5.8,1.6-11.6,3.1
			c-1.7-10.7-3.6-21.3-5.7-31.9c-1.8-9.6-3.9-19.2-6.1-28.7c1.9-0.2,2.8-0.3,4.7-0.5c0.9-0.1,2.7-0.3,5.5-0.7c2.8-0.4,4.8-0.6,6-0.7
			c10.9-1,17.1,2.4,18.7,10.5c1.2,6.3-0.5,10.8-5.2,13.9c0,0.2,0.1,0.3,0.1,0.4C211.7,160.2,216.2,163.8,217.6,171.2z M203.3,148.8
			c-1.2-5.9-5.4-8.4-12.6-7.6c-3.6,0.4-6.6,1-8.7,1.7c0.6,2.2,1.9,8.3,3.9,18.5c1.3-0.2,2.7-0.4,4.2-0.7c5.1-0.9,8.7-2.2,10.7-3.9
			C203.1,155,203.9,152.3,203.3,148.8z M211.3,173.4c-1.4-6.9-7.6-9.3-18.8-7.1c-2.1,0.4-3.8,0.9-5.4,1.3c1.6,8.1,3.1,15.3,4.7,21.6
			c1,0,2.7-0.3,5.2-1c6.1-1.7,10.2-3.8,12.4-6.2C211.3,179.8,212,177,211.3,173.4z"/>
		<path fill="#EA91AB" d="M238.8,182.3c-2.9,0.8-4.3,1.3-7.2,2.1c-1.3-8.7-2.9-17.8-4.7-27.3c-1.8-9.4-3.6-17.5-5.4-24.5
			c3-0.3,4.5-0.4,7.5-0.7c1,7.1,2.4,15.1,4.1,24C235,165.3,236.9,174.1,238.8,182.3z"/>
		<path fill="#EA91AB" d="M279.6,158.8c1.6,8-4.2,13.9-17.1,17.8c-4.7,1.4-9,2.2-12.9,2.2c0.1-2.5,0.1-3.7,0.2-6.2
			c4.5,0.3,8.7-0.2,12.5-1.2c8.6-2.4,12.5-5.7,11.6-9.9c-0.4-2.1-1.9-3.7-4.4-4.8c-1.7-0.7-4.9-1.4-9.7-2.3c-5-0.9-8.7-2.1-10.9-3.4
			c-3-1.8-4.9-4.5-5.6-8c-0.7-3.7,0-6.8,2.3-9.4c2.5-2.9,6.5-4.5,12-5c6.2-0.6,10.6-0.6,13-0.2c0,2.1,0,3.2,0.1,5.3
			c-4.2-0.6-8.5-0.6-12.9-0.1c-6.7,0.8-9.6,3.2-8.8,7.4c0.4,2,1.7,3.5,3.8,4.6c1.4,0.6,4.4,1.5,8.9,2.3c5.2,1,9,2.1,11.4,3.2
			C276.8,152.8,279,155.3,279.6,158.8z"/>
	</g>
</g>
</svg>
