<?xml version="1.0" encoding="utf-8"?>
<!-- Generator: Adobe Illustrator 18.1.1, SVG Export Plug-In . SVG Version: 6.00 Build 0)  -->
<svg version="1.1" id="Calque_2" xmlns="http://www.w3.org/2000/svg" xmlns:xlink="http://www.w3.org/1999/xlink" x="0px" y="0px"
	 viewBox="0 0 175 147.5" enable-background="new 0 0 175 147.5" xml:space="preserve">
<path fill="#75BA7E" d="M68.3,110.5c0,0-9,24-28.3,13s-3-28.8-3-28.8S12.3,99,10,84.4s3-23.1,16.8-24.1c0,0-21.3-15.3-5.8-29.3
	s29.8,1.3,29.8,1.3S49,8,71.5,9s21,21,18.3,28.5s22.8,23,22.8,23S130,69.3,128.8,73s-1.3,12-9.5,14.5s-16.8,3.3-16.8,7.8
	s-3.1,33.5-3.1,33.5l-17.9-5C81.5,123.8,72.3,126.8,68.3,110.5z"/>
<path fill="#1A6C5E" d="M111.8,70.8c0-0.7-0.1-1.3-0.1-1.9c-0.9-10.8-5.1-12.3-5.1-12.3c0-3.9-1.5-10.6-1.5-10.6s-6.5,18.8-9,29.5
	s1,19.5,2,28s-1.8,20,3.3,19.3s34.8,5.8,43,6.8s19.5,0,19.5,0c-7,7.5-31.3,10.5-40,10.5s-29.5-7.8-41.8-10s-29.8,4.3-29.8,4.3
	c2.5-4,14-8,16.9-8.5s10.8,0.8,11.8-1.1c1-1.9-0.3-7.6-0.3-7.6l-2-5l-2.8-9.5c0,0-3.8-7.3-5-6.8s-1.8,7-1.8,7s-1.4-0.8-3.4-2
	s-1-6.5-1.8-7.8s-4.5,1.5-4.5,1.5s-4.5,6-6,4.8s-1.3-7.8-1.3-7.8l5.8-5.8c0,0-2.5-0.5-4.5-1.4S47,88.5,47,88.5s0-6.3,2.3-9
	s11.3-2.8,11.3-2.8s-2-2-3-2.5s-7-1.3-7-1.3c0.3-3,7-4.3,9.3-4.1S67,78,67,78s-1.3-7.8,4.7-10.3c5.9-2.5,11.1,5.3,11.1,5.3
	c-2-1.3-6.8-0.5-9.8,0s0,7,0,7l2.5-3.5l7,0.5c0,0-2.8,2,0.5,2.8s3.3,5.8,3.3,5.8c-1.5-2.5-6-1.1-6-1.1c4.8,3.4,2.5,8.6,2.5,8.6
	c-4.5-6.5-9.8,0-9.8,0s9.3,15,10.8,18.3s2.5,10.8,2.5,10.8s2.4,3.8,4,2.3s2.3-4.5,2.3-4.5C90.7,106.5,89.5,81,91,73
	s7.2-22.7,7.2-22.7s-5,2.5-5.5,4.7S85.3,71,84,66.8s0.5-17.3,0.5-17.3L97.3,44l-5.8-0.7l-8.2,4.9v-4c0,0-10,13-8.3,4.5
	s18.5-15.5,18.5-15.5s2-3.5,1-4.8S79,31,79,31c2.8-4.8,18-14,20.4-14s3.6,6.5,3.6,6.5l3-6.8c0,0-7.3-7-4.8-7.8s13.5,9.8,13.5,9.8V28
	c3.5-5.5,11.5,0,11.5,0c14,1.8,8.7,22.7,8.7,22.7L135,52c0.3-6.3-6.2-8-6.2-8l-1.8,2c-1.8-4-15.8-6-12-4.5s13.8,8.5,13.8,8.5v16.5
	l-3.3-0.8c-2.5-10.3-8.3-10.3-8.3-10.3c1.8,14.3-5.6,13.4-5.6,13.4"/>
<path fill="#8FBB93" d="M103.8,124l-6.3,4.2c0,0,1-7.7,0.9-8.5c-0.1-0.8-6.4-4.2-6.4-4.2s-1.2-5.9,2.5-7.2s7.4-4.1,7.4-4.1
	s-5.6-4.4-2.4-7.2s11.6-7.3,12.2-5c0.6,2.3,2.8-3.1,5.2-3.8c2.4-0.7,8.4-2.2,8.4-2.2l2.5-1.6c0,0-0.7-7.9,0-9.1
	c0.7-1.2,5.8,1.8,7.3,1.5s5-3.8,6.5-3.8s1.3,5,2.3,6.8s3.5-1.5,6-1.3s4.8,3,4.5,5.9s7.5-1.6,9.5,0s-2.3,8.9-4.3,9.9s-2.5,4-0.8,5.3
	s8,1.8,8,2.5s-0.3,2-1.5,3.5s-1.3,1.8-4.5,1.5s-3.3,1.3-6.5,1.8s-4.8-0.8-6.3,1.3s-1,3.3-2.3,3.3s-4.3-3.8-4.3-3.8s-1.3-4-1.3-5.5
	s-2.5,0.3-2.5,0.3s-1,2.3-0.8,3.8s-1.5,1.8,2.5,2.8s3.3,3.8,2.8,6.8s6,0.3,6,0.3s0.5-3.8,3-4s6-1,6.3,0.8s2.3,4.3-0.5,5.3
	s-3.3,2.8-1.3,3.8s4.5,4.1,1,4.7c-3.5,0.6-2.3,4.1-5.3,4.3s-5.8,3.1-7,0s-4-2-4-2l-3.8-0.5c0,0-0.2-0.8-1.7,0.8s-0.3,2-3,1.3
	s-3-2.5-4.3-3.3s-1.8,0.8-3,0s-1.5-0.3-2.5,0s-1.3,2.3-2.5,0s-2.9-4.1-2.9-4.1s0.8,0.1-1.1-0.2c-1.9-0.3-0.7-0.9-2.5,1.3
	s-5.8,5-5.8,5s0.8,2.3-2.1,0S103.8,124,103.8,124z"/>
</svg>
