<?xml version="1.0" encoding="utf-8"?>
<!-- Generator: Adobe Illustrator 18.1.1, SVG Export Plug-In . SVG Version: 6.00 Build 0)  -->
<svg version="1.1" id="Calque_2" xmlns="http://www.w3.org/2000/svg" xmlns:xlink="http://www.w3.org/1999/xlink" x="0px" y="0px"
	 viewBox="0 0 263 185" enable-background="new 0 0 263 185" xml:space="preserve">
<path fill="#996FA4" d="M15.3,160l48.3-86l119-30.3l-21-11.3c0,0,66-5,92-9.7c0,0-50.7,50.3-57.3,63L194,66L15.3,160z"/>
<path fill="#9660A1" d="M36.7,133.4v30c43.7,22.3,61-4.7,61-4.7c30,6,39-11.3,39-11.3C167,157,179.3,137,179.3,137V73.3l-58.7,0.5
	v17l-52.9,38.4L36.7,133.4z"/>
<ellipse fill="#BA8DB5" cx="150" cy="73.3" rx="29.3" ry="17"/>
<path fill="#BA8DB5" d="M136.7,107.7c0,10.5-13.3,19-29.7,19s-29.7-8.5-29.7-19c0-10.5,13.3-19,29.7-19S136.7,97.2,136.7,107.7z"/>
<path fill="#BA8DB5" d="M95.3,133.4c0,9.2-13.1,16.7-29.3,16.7c-16.2,0-29.3-7.5-29.3-16.7c0-9.2,13.1-16.7,29.3-16.7
	C82.2,116.7,95.3,124.1,95.3,133.4z"/>
</svg>
