<?xml version="1.0" encoding="utf-8"?>
<!-- Generator: Adobe Illustrator 18.1.1, SVG Export Plug-In . SVG Version: 6.00 Build 0)  -->
<svg version="1.1" id="Calque_2" xmlns="http://www.w3.org/2000/svg" xmlns:xlink="http://www.w3.org/1999/xlink" x="0px" y="0px"
	 viewBox="0 0 196.5 197.4" enable-background="new 0 0 196.5 197.4" xml:space="preserve">
<polygon fill="#F7B578" points="18.2,100.2 104.3,15.3 189.9,100.2 104,185.8 "/>
<polygon fill="#EA733C" points="49.4,160.1 69.7,58.1 81.4,58.1 60.9,160.1 "/>
<polygon fill="#EA733C" points="146.9,160.1 159.4,160.1 137.7,58.1 127.2,58.1 127.2,69.3 "/>
<polygon fill="#EA733C" points="69.9,100.8 47.4,118.6 44.2,118.6 44.2,100.8 "/>
<polygon fill="#FACD78" points="88.4,100.8 69.2,118.6 47.4,118.6 69.9,100.8 "/>
<polygon fill="#EA733C" points="104,100.8 85.4,118.6 69.2,118.6 88.4,100.8 "/>
<polygon fill="#FACD78" points="124.9,100.8 107.4,118.6 85.4,118.6 104,100.8 "/>
<polygon fill="#EA733C" points="143.3,100.8 123.4,118.6 107.4,118.6 124.9,100.8 "/>
<polygon fill="#FACD78" points="159.4,100.8 139.4,118.6 123.4,118.6 143.3,100.8 "/>
<polygon fill="#EA733C" points="164.7,100.8 164.7,118.6 139.4,118.6 159.4,100.8 "/>
<polygon fill="#EA733C" points="68.7,69.3 49.4,85.6 44.1,85.6 44.1,69.3 "/>
<polygon fill="#FACD78" points="86.9,69.3 69.9,85.6 49.4,85.6 68.7,69.3 "/>
<polygon fill="#EA733C" points="104,69.3 86.9,85.6 69.9,85.6 86.9,69.3 "/>
<polygon fill="#FACD78" points="124.9,69.3 107.4,85.6 86.9,85.6 104,69.3 "/>
<polygon fill="#EA733C" points="141.2,69.3 123.4,85.6 107.4,85.6 124.9,69.3 "/>
<polygon fill="#FACD78" points="159.4,69.3 143.3,85.6 123.4,85.6 141.2,69.3 "/>
<polygon fill="#EA733C" points="164.6,69.3 164.6,85.6 143.3,85.6 159.4,69.3 "/>
</svg>
